<?xml version="1.0" encoding="UTF-8" standalone="no"?>
<!-- Created with Inkscape (http://www.inkscape.org/) -->

<svg
   xmlns:dc="http://purl.org/dc/elements/1.1/"
   xmlns:cc="http://creativecommons.org/ns#"
   xmlns:rdf="http://www.w3.org/1999/02/22-rdf-syntax-ns#"
   xmlns:svg="http://www.w3.org/2000/svg"
   xmlns="http://www.w3.org/2000/svg"
   xmlns:sodipodi="http://sodipodi.sourceforge.net/DTD/sodipodi-0.dtd"
   xmlns:inkscape="http://www.inkscape.org/namespaces/inkscape"
   width="48"
   height="48"
   viewBox="0 0 47.999996 47.999998"
   id="svg2"
   version="1.1"
   inkscape:version="0.91 r13725"
   sodipodi:docname="icon-48.svg"
   inkscape:export-filename="/home/alexem/Projects/dev/prototype/mongo-admin/assets/icon-48.png"
   inkscape:export-xdpi="90"
   inkscape:export-ydpi="90">
  <defs
     id="defs4" />
  <sodipodi:namedview
     id="base"
     pagecolor="#ffffff"
     bordercolor="#666666"
     borderopacity="1.0"
     inkscape:pageopacity="0.0"
     inkscape:pageshadow="2"
     inkscape:zoom="8"
     inkscape:cx="7.5920706"
     inkscape:cy="27.780135"
     inkscape:document-units="px"
     inkscape:current-layer="layer1"
     showgrid="false"
     units="px"
     inkscape:window-width="1366"
     inkscape:window-height="643"
     inkscape:window-x="0"
     inkscape:window-y="25"
     inkscape:window-maximized="1" />
  <metadata
     id="metadata7">
    <rdf:RDF>
      <cc:Work
         rdf:about="">
        <dc:format>image/svg+xml</dc:format>
        <dc:type
           rdf:resource="http://purl.org/dc/dcmitype/StillImage" />
        <dc:title />
      </cc:Work>
    </rdf:RDF>
  </metadata>
  <g
     inkscape:label="Layer 1"
     inkscape:groupmode="layer"
     id="layer1"
     transform="translate(0,-1004.3622)">
    <text
       xml:space="preserve"
       style="font-style:normal;font-weight:normal;font-size:6.54830408px;line-height:125%;font-family:sans-serif;letter-spacing:0px;word-spacing:0px;fill:#447821;fill-opacity:1;stroke:none;stroke-width:1px;stroke-linecap:butt;stroke-linejoin:miter;stroke-opacity:1"
       x="-3.1572175"
       y="1001.5751"
       id="text4250"
       sodipodi:linespacing="125%"
       transform="scale(0.96348099,1.0379032)"><tspan
         sodipodi:role="line"
         id="tspan4252"
         x="-3.1572175"
         y="1001.5751"
         style="font-size:29.46736526px;fill:#447821">{  }</tspan></text>
    <path
       style="opacity:1;fill:#447821;fill-opacity:1;stroke:none"
       d="M 38.191406 30.492188 A 15.570907 8.113245 0 0 1 24.140625 35.130859 A 15.570907 8.113245 0 0 1 10.089844 30.496094 A 15.570907 10.302904 0 0 0 8.5683594 34.908203 A 15.570907 10.302904 0 0 0 24.140625 45.210938 A 15.570907 10.302904 0 0 0 39.710938 34.908203 A 15.570907 10.302904 0 0 0 38.191406 30.492188 z "
       transform="translate(0,1004.3622)"
       id="path4136-9" />
    <path
       style="opacity:1;fill:#8dd35f;fill-opacity:1;stroke:none"
       d="M 9.4472656 29.673828 A 15.570907 9.3297216 0 0 0 8.5683594 32.730469 A 15.570907 9.3297216 0 0 0 24.140625 42.060547 A 15.570907 9.3297216 0 0 0 39.710938 32.730469 A 15.570907 9.3297216 0 0 0 38.833984 29.675781 A 15.570907 8.113245 0 0 1 24.140625 35.130859 A 15.570907 8.113245 0 0 1 9.4472656 29.673828 z "
       transform="translate(0,1004.3622)"
       id="path4136" />
    <path
       style="opacity:1;fill:#447821;fill-opacity:1;stroke:none"
       d="M 10.621094 21.402344 A 15.570907 7.6266546 0 0 0 8.5683594 25.175781 A 15.570907 7.6266546 0 0 0 24.140625 32.802734 A 15.570907 7.6266546 0 0 0 39.710938 25.175781 A 15.570907 7.6266546 0 0 0 37.658203 21.410156 A 15.570907 7.6266546 0 0 1 24.140625 25.263672 A 15.570907 7.6266546 0 0 1 10.621094 21.402344 z "
       transform="translate(0,1004.3622)"
       id="path4136-6-8" />
    <path
       style="opacity:1;fill:#8dd35f;fill-opacity:1;stroke:none"
       d="M 9.9335938 20.734375 A 15.570907 7.1400632 0 0 0 8.5683594 23.644531 A 15.570907 7.1400632 0 0 0 24.140625 30.783203 A 15.570907 7.1400632 0 0 0 39.710938 23.644531 A 15.570907 7.1400632 0 0 0 38.347656 20.744141 A 15.570907 7.6266546 0 0 1 24.140625 25.263672 A 15.570907 7.6266546 0 0 1 9.9335938 20.734375 z "
       transform="translate(0,1004.3622)"
       id="path4136-6" />
    <path
       style="opacity:1;fill:#447821;fill-opacity:1;stroke:none"
       d="M 24.140625 8.2910156 A 15.570907 7.3833594 0 0 0 17.068359 9.0957031 L 17.628906 9.0957031 C 18.929294 9.0957031 18.961024 9.1177482 19.087891 9.1621094 C 19.373342 9.2508317 19.565006 9.4500693 19.660156 9.671875 C 20.389642 9.361347 21.150698 8.984375 22.324219 8.984375 C 23.719757 8.984375 24.38511 9.3626228 24.892578 10.005859 L 25.083984 9.8945312 C 25.876904 9.340017 26.891105 8.984375 28.318359 8.984375 C 29.238146 8.984375 29.745418 9.1841734 30.189453 9.5390625 C 30.696921 9.8939516 30.982041 10.381883 31.140625 11.158203 C 31.172342 11.291287 31.173361 12.089551 31.205078 14.152344 L 31.205078 16.970703 L 31.744141 16.970703 C 32.72736 17.015064 32.980469 17.169263 32.980469 17.8125 C 32.980469 18.278292 32.790205 18.499729 32.314453 18.632812 L 28.541016 18.632812 C 28.033547 18.499729 27.841797 18.367014 27.841797 17.8125 C 27.841797 17.235805 28.12785 17.015064 28.730469 16.970703 L 28.953125 16.970703 L 28.953125 14.419922 C 28.953125 11.447725 28.952953 11.357538 28.699219 10.980469 C 28.508918 10.758663 28.319035 10.648438 27.875 10.648438 C 26.384312 10.648438 25.623428 11.758294 25.464844 12.800781 C 25.433127 12.933865 25.431641 13.864885 25.431641 14.996094 L 25.431641 16.970703 L 25.970703 16.970703 C 26.953923 17.015064 27.208984 17.169263 27.208984 17.8125 C 27.208984 18.278292 27.01872 18.499729 26.542969 18.632812 L 22.767578 18.632812 C 22.26011 18.499729 22.070312 18.367014 22.070312 17.8125 C 22.070313 17.235805 22.356366 17.015064 22.958984 16.970703 L 23.179688 16.970703 L 23.179688 14.419922 C 23.179687 11.447725 23.179515 11.357538 22.925781 10.980469 C 22.735481 10.758663 22.545597 10.648438 22.101562 10.648438 C 20.610874 10.648438 19.84999 11.758294 19.691406 12.800781 C 19.659689 12.933865 19.660156 13.864885 19.660156 14.996094 L 19.660156 16.970703 L 20.199219 16.970703 C 21.182439 17.015064 21.435547 17.169263 21.435547 17.8125 C 21.435547 18.278292 21.245283 18.499729 20.769531 18.632812 L 16.330078 18.632812 C 15.82261 18.52191 15.599609 18.278292 15.599609 17.8125 C 15.599609 17.391069 15.789787 17.214554 16.138672 17.037109 C 16.297256 16.992748 16.329956 16.992884 16.869141 16.970703 L 17.408203 16.970703 L 17.408203 10.78125 L 16.869141 10.78125 C 16.329956 10.759069 16.297256 10.759205 16.138672 10.714844 C 15.789787 10.537399 15.599609 10.360884 15.599609 9.9394531 C 15.599609 9.7248215 15.654725 9.5770054 15.742188 9.4570312 A 15.570907 7.3833594 0 0 0 8.5683594 15.673828 A 15.570907 7.3833594 0 0 0 24.140625 23.058594 A 15.570907 7.3833594 0 0 0 39.710938 15.673828 A 15.570907 7.3833594 0 0 0 24.140625 8.2910156 z "
       transform="translate(0,1004.3622)"
       id="ellipse4224" />
    <path
       style="opacity:1;fill:#8dd35f;fill-opacity:1;stroke:none"
       d="M 24.140625 6.9277344 A 15.570907 7.3833594 0 0 0 8.5683594 14.3125 A 15.570907 7.3833594 0 0 0 24.140625 21.695312 A 15.570907 7.3833594 0 0 0 39.710938 14.3125 A 15.570907 7.3833594 0 0 0 24.140625 6.9277344 z M 22.324219 8.984375 C 23.719757 8.984375 24.38511 9.3626228 24.892578 10.005859 L 25.083984 9.8945312 C 25.876904 9.340017 26.891105 8.984375 28.318359 8.984375 C 29.238146 8.984375 29.745418 9.1841734 30.189453 9.5390625 C 30.696921 9.8939516 30.982041 10.381883 31.140625 11.158203 C 31.172342 11.291287 31.173361 12.089551 31.205078 14.152344 L 31.205078 16.970703 L 31.744141 16.970703 C 32.72736 17.015064 32.980469 17.169263 32.980469 17.8125 C 32.980469 18.278292 32.790205 18.499729 32.314453 18.632812 L 28.541016 18.632812 C 28.033547 18.499729 27.841797 18.367014 27.841797 17.8125 C 27.841797 17.235805 28.12785 17.015064 28.730469 16.970703 L 28.953125 16.970703 L 28.953125 14.419922 C 28.953125 11.447725 28.952953 11.357538 28.699219 10.980469 C 28.508918 10.758663 28.319035 10.648438 27.875 10.648438 C 26.384312 10.648438 25.623428 11.758294 25.464844 12.800781 C 25.433127 12.933865 25.431641 13.864885 25.431641 14.996094 L 25.431641 16.970703 L 25.970703 16.970703 C 26.953923 17.015064 27.208984 17.169263 27.208984 17.8125 C 27.208984 18.278292 27.01872 18.499729 26.542969 18.632812 L 22.767578 18.632812 C 22.26011 18.499729 22.070312 18.367014 22.070312 17.8125 C 22.070313 17.235805 22.356366 17.015064 22.958984 16.970703 L 23.179688 16.970703 L 23.179688 14.419922 C 23.179687 11.447725 23.179515 11.357538 22.925781 10.980469 C 22.735481 10.758663 22.545597 10.648438 22.101562 10.648438 C 20.610874 10.648438 19.84999 11.758294 19.691406 12.800781 C 19.659689 12.933865 19.660156 13.864885 19.660156 14.996094 L 19.660156 16.970703 L 20.199219 16.970703 C 21.182439 17.015064 21.435547 17.169263 21.435547 17.8125 C 21.435547 18.278292 21.245283 18.499729 20.769531 18.632812 L 16.330078 18.632812 C 15.82261 18.52191 15.599609 18.278292 15.599609 17.8125 C 15.599609 17.391069 15.789787 17.214554 16.138672 17.037109 C 16.297256 16.992748 16.329956 16.992884 16.869141 16.970703 L 17.408203 16.970703 L 17.408203 10.78125 L 16.869141 10.78125 C 16.329956 10.759069 16.297256 10.759205 16.138672 10.714844 C 15.789787 10.537399 15.599609 10.360884 15.599609 9.9394531 C 15.599609 9.4293 15.854327 9.2509671 16.330078 9.0957031 L 17.628906 9.0957031 C 18.929294 9.0957031 18.961024 9.1177482 19.087891 9.1621094 C 19.373342 9.2508317 19.565006 9.4500693 19.660156 9.671875 C 20.389642 9.361347 21.150698 8.984375 22.324219 8.984375 z "
       transform="translate(0,1004.3622)"
       id="path4136-6-5" />
    <path
       style="font-style:normal;font-weight:normal;font-size:11.78821945px;line-height:125%;font-family:sans-serif;letter-spacing:0px;word-spacing:0px;fill:#225500;fill-opacity:1;stroke:none;stroke-width:1px;stroke-linecap:butt;stroke-linejoin:miter;stroke-opacity:1"
       d="M 15.634766 9.7011719 C 15.291882 9.8444633 15.099609 10.035928 15.099609 10.466797 C 15.099609 10.888228 15.289787 11.064743 15.638672 11.242188 C 15.797256 11.286549 15.829956 11.286413 16.369141 11.308594 L 16.908203 11.308594 L 16.908203 16.970703 L 17.408203 16.970703 L 17.408203 10.78125 L 16.869141 10.78125 C 16.329956 10.759069 16.297256 10.759205 16.138672 10.714844 C 15.789787 10.537399 15.599609 10.360884 15.599609 9.9394531 C 15.599609 9.8462312 15.618014 9.7740693 15.634766 9.7011719 z M 22.101562 10.648438 C 21.169882 10.648438 20.523602 11.082685 20.130859 11.662109 C 20.505916 11.368958 20.988779 11.175781 21.601562 11.175781 C 22.045597 11.175781 22.235481 11.286007 22.425781 11.507812 C 22.679515 11.884882 22.679687 11.975069 22.679688 14.947266 L 22.679688 17.019531 C 22.766664 16.999572 22.852305 16.978556 22.958984 16.970703 L 23.179688 16.970703 L 23.179688 14.419922 C 23.179688 11.447725 23.179515 11.357538 22.925781 10.980469 C 22.735481 10.758663 22.545597 10.648438 22.101562 10.648438 z M 27.875 10.648438 C 26.94332 10.648438 26.295087 11.082685 25.902344 11.662109 C 26.277444 11.368805 26.762032 11.175781 27.375 11.175781 C 27.819035 11.175781 28.008918 11.286007 28.199219 11.507812 C 28.452953 11.884882 28.453125 11.975069 28.453125 14.947266 L 28.453125 17.019531 C 28.539967 16.999638 28.624001 16.978541 28.730469 16.970703 L 28.953125 16.970703 L 28.953125 14.419922 C 28.953125 11.447725 28.952953 11.357538 28.699219 10.980469 C 28.508918 10.758663 28.319035 10.648438 27.875 10.648438 z M 22.107422 17.558594 C 21.747621 17.661356 21.570313 17.891598 21.570312 18.339844 C 21.570312 18.894358 21.76011 19.027073 22.267578 19.160156 L 26.042969 19.160156 C 26.425529 19.053141 26.616802 18.882559 26.679688 18.580078 C 26.633353 18.597467 26.596358 18.617878 26.542969 18.632812 L 22.767578 18.632812 C 22.26011 18.499729 22.070312 18.367014 22.070312 17.8125 C 22.070312 17.713362 22.090389 17.637658 22.107422 17.558594 z M 27.878906 17.558594 C 27.520121 17.661576 27.341797 17.892218 27.341797 18.339844 C 27.341797 18.894358 27.533547 19.027073 28.041016 19.160156 L 31.814453 19.160156 C 32.197014 19.053141 32.388287 18.882559 32.451172 18.580078 C 32.404838 18.597467 32.367842 18.617878 32.314453 18.632812 L 28.541016 18.632812 C 28.033547 18.499729 27.841797 18.367014 27.841797 17.8125 C 27.841797 17.713362 27.861874 17.637658 27.878906 17.558594 z M 15.630859 17.568359 C 15.28737 17.744378 15.099609 17.921838 15.099609 18.339844 C 15.099609 18.805636 15.32261 19.049253 15.830078 19.160156 L 20.269531 19.160156 C 20.652092 19.053141 20.843365 18.882559 20.90625 18.580078 C 20.859916 18.597467 20.82292 18.617878 20.769531 18.632812 L 16.330078 18.632812 C 15.82261 18.52191 15.599609 18.278292 15.599609 17.8125 C 15.599609 17.718437 15.612251 17.640825 15.630859 17.568359 z "
       transform="translate(0,1004.3622)"
       id="text4226" />
  </g>
</svg>
